<?xml version="1.0" encoding="UTF-8"?>
<svg id="Capa_2" data-name="Capa 2" xmlns="http://www.w3.org/2000/svg" viewBox="0 0 140.17 138.54">
  <defs>
    <style>
      .cls-1 {
        fill: #010102;
      }

      .cls-2 {
        fill: #020202;
      }

      .cls-3 {
        fill: #08080a;
      }

      .cls-4 {
        fill: #010101;
      }

      .cls-5 {
        fill: #020203;
      }

      .cls-6 {
        fill: #605e63;
      }
    </style>
  </defs>
  <g id="Capa_1-2" data-name="Capa 1">
    <g>
      <path class="cls-4" d="M8.83,30.05c3.08,4.09,7.75,7.2,12.7,8.67,3.52,1.04,7.11,1.11,10.58,2.52,9.3,3.77,16.41,14.61,15.81,24.7-.02.25-.12,1.33-.4,1.42-.29-1.22-.98-2.35-1.63-3.41-4.56-7.5-10.74-13.46-20.28-10.64-1.21.36-5.46,2.47-5.91,3.55-.09.22-.06.38.04.59l16.93,42.76.54,2.99c-12.52-5.21-29.5,6.35-26.66,20.3l.99,3.08c-12.02-1.02-14.24-11.98-8.57-21.22,3.96-6.46,11.37-11.53,18.91-12.65.33-.05,3.52-.15,3.52-.35L1.81,32.92c.06-.66,6.03-2.81,7.02-2.87Z"/>
      <path class="cls-4" d="M114.74,92.67h3.54c5.79,0,14.34,6.36,17.68,10.87,6.9,9.34,5.9,21.83-7.48,23.02,6.83-14.71-11.98-29.07-25.56-23.39l.91-3.91,16.61-41.79c.27-.86-1.12-1.64-1.77-2.1-4.14-2.95-9.35-3.54-14.08-1.71-5.42,2.11-9.63,8.58-11.97,13.68-.37.05-.2-.49-.21-.75-.36-9.78,4-18.55,12.39-23.67,5.66-3.45,11.05-2.82,16.81-5.3,4.06-1.75,6.96-4.41,9.99-7.53.74-.11,5.86,2.01,6.57,2.61.12.1.21.16.12.33l-23.54,59.63Z"/>
      <path class="cls-4" d="M78.01,38.82l-2.19-6.71c-1.43-3.28-3-6.55-5.23-9.36-.27-.34-1.34-1.82-1.69-1.74-.25.06-2.78,3.64-3.13,4.18-2.79,4.37-3.8,8.07-5.36,12.88-.09.28,0,.67-.43.75-2.41-12.1-.64-25.8,6.61-35.98.31-.43,2.06-2.79,2.33-2.83.77-.13,4.19,5.28,4.7,6.2,5.42,9.72,6.69,21.79,4.4,32.61Z"/>
      <path class="cls-4" d="M69.18,30.07c7.56,8.98,10.37,20.61,9.7,32.25-.09,1.51-.44,4.8-.91,6.17-.06.18-.15.38-.37.38-1.28-6.54-4.26-12.82-8.7-17.8-4.51,4.97-7.29,11.3-8.8,17.8-.43-.68-.56-1.73-.69-2.53-1.88-11.52.72-26.01,8.32-35.12.35-.42.99-1.43,1.46-1.14Z"/>
      <path class="cls-4" d="M38.93,117.99c2.03,2.07,3.84,4.39,6.01,6.33,4.94,4.43,11.86,8.44,18.43,9.7,14.43,2.76,27.48-5.44,36.12-16.24-3.89,15.7-21.35,22.66-36.34,20.32-10.7-1.67-21.8-9.06-24.22-20.11Z"/>
      <path class="cls-4" d="M52.24,34.1l-1.94-2.67c-1.98-2.49-4.44-4.53-7.19-6.12-2.01,4.23-1.48,9.22-.97,13.73-.18.25-1.63-2.79-1.75-3.07-2.56-5.89-3.54-13.44-.93-19.45,6.53,3.65,11.28,10.27,12.78,17.59Z"/>
      <path class="cls-4" d="M57.82,48.9l-2.46-3.22c-1.99-2.06-4.04-4.09-6.66-5.36-1.31,2.94-1.62,6.74-1.39,9.97.08,1.19.5,2.49.64,3.65.06.47-.11.39-.32.1-2.99-4.23-4.36-11.97-3.97-17.05.06-.73.88-5.1,1.28-5.38.26-.19.37,0,.59.08.55.21,2.39,1.55,2.96,1.98,4.61,3.56,8.19,9.53,9.34,15.23Z"/>
      <path class="cls-4" d="M97.99,39.03c.87-4.52,1.21-9.67-.76-13.95-2.49,1.3-4.81,3.26-6.66,5.36-.8.91-1.42,2.07-2.19,2.95-.12.14-.14.61-.49.17,2.13-7.1,6.2-13.82,12.98-17.27,1.87,4.09,1.78,9.57.83,13.9-.67,3.03-1.95,6.31-3.72,8.84Z"/>
      <path class="cls-4" d="M92.41,53.84c.76-3.81.93-7.52.07-11.33-.1-.44-.47-2.31-.83-2.39-.93-.21-5.53,3.96-6.32,4.83-.89.98-1.59,2.2-2.4,3.18-.15.18-.36.61-.61.25,2.13-6.92,6.23-13.83,12.97-17.05.55.16,1.35,4.88,1.41,5.68.42,5.65-1.05,12.2-4.29,16.84Z"/>
      <path class="cls-4" d="M102.07,105.55c.27,9.34,10,15.91,18.9,13.62,1.22-.31,2.12-.97,3.16-1.35.27-.1.65-.12.49.27-.31.76-3.58,3.23-4.44,3.72-11.43,6.48-22.02-4.11-18.54-15.95.09-.31-.12-.38.43-.31Z"/>
      <path class="cls-4" d="M15.09,117.56c1.26.58,2.5,1.26,3.86,1.61,7.68,1.98,15.84-2.56,18.32-10.03l.8-4.03c1.18,4.27,1.2,8.65-1.03,12.59-4.72,8.33-15.85,7.47-21.51.61-.2-.24-.52-.35-.43-.75Z"/>
      <path class="cls-4" d="M56.97,114.99c2.99-2.17,6.41-2.98,10.05-2,.6.16,2.3,1.05,2.52,1.05.34,0,1.99-.79,2.64-.93,3.12-.67,6.7-.04,9.06,2.19-5.65,3.99-14.56,4.31-20.88,1.77-.35-.14-3.64-1.71-3.38-2.09Z"/>
      <path class="cls-1" d="M91.97,99.32c-.14.12-.3.01-.44-.14-.68-.71-3.61-5.66-3.96-5.66l-6.23,5.79-3.74-7.16,2.13-1.2,2.26,4.5,5.77-5.56,4.11,5.34c.77-.47,3.2-4.35,3.83-4.26.26.04,1.65,1.15,1.57,1.48l-5.29,6.85Z"/>
      <path class="cls-1" d="M51.16,93.96l-6.33,5.78-3.76-7.28c.72.01,1.51-1.18,2.15-.77.4.26,1.81,3.58,2.25,4.19l5.8-5.57,4.08,5.57c.58-.57,3.33-4.57,3.83-4.48.13.02,1.65,1.2,1.63,1.56l-5.67,6.79-3.98-5.79Z"/>
      <path class="cls-2" d="M79.3,85.38c.32-1.4.7-2.3,1.61-3.44,5.22-6.49,15.53-3.99,17.07,4.08-3.92-5.73-14.42-6.11-18.47-.43-.28.28-.33.17-.21-.21Z"/>
      <path class="cls-2" d="M59.76,85.81c-3.92-5.04-11.78-5.68-16.75-1.83l-1.93,1.93c1.54-7.91,11.87-10.4,16.96-4.07.86,1.07,1.75,2.57,1.72,3.96Z"/>
      <path class="cls-5" d="M76.94,119.49c.38-.06.21.49.16.7-.53,2.39-2.97,4.72-5.26,5.47-4.76,1.58-9.61-1.27-10.8-6.07l2.04,1.82c3.91,2.96,11.21,2.47,13.85-1.93Z"/>
      <path class="cls-3" d="M86.11,97.44c2.14-.64,3.02,2.28,1.15,2.87-2.16.68-2.8-2.37-1.15-2.87Z"/>
      <path class="cls-3" d="M49.6,97.44c2.19-.66,2.87,2.33,1.15,2.87-2.19.68-2.84-2.36-1.15-2.87Z"/>
      <path class="cls-6" d="M79.52,85.59c-.19.26-.11.72-.43.64-.18-.38.17-.68.21-.86l.21.21Z"/>
    </g>
  </g>
</svg>