<?xml version="1.0" encoding="UTF-8"?>
<svg id="Capa_2" data-name="Capa 2" xmlns="http://www.w3.org/2000/svg" viewBox="0 0 229.2 114.29">
  <defs>
    <style>
      .cls-1 {
        fill: #fff;
      }
    </style>
  </defs>
  <g id="Capa_1-2" data-name="Capa 1">
    <g>
      <path class="cls-1" d="M168.38,75.53c-3.61,9.54-8.48,19.36-10.67,29.35-.58,2.65-1.51,6.21-.07,8.62l-7.8.14c-1.33-.06-2.07-.69-2.61-1.85l-3.98-13.3-1.39,2.58c-1.67,3.97-1.81,8.2-1.4,12.44-2.33,0-4.66.01-6.99-.01-1.22-.01-1.86.47-3.01-.63-1.53-1.46-1.83-6.77-2.31-9.06-1.92-9.07-5.97-18.32-9.39-26.88l-1.28-1.19h12.13c.75,0,2.1,1.4,2.41,2.09,2.09,4.63,2.87,11.12,4.89,15.93,1.91,3.38,3.78-.8,3.97-2.9.23-2.56-.56-4.8-1.82-6.97s-4.29-4.35-2.95-7.02c.18-.36,1.15-1.13,1.44-1.13h14.07l-1.4,1.07c-2.09,2.41,0,8.31.97,11.06.49,1.38,2.2,5.94,3.12,6.76,1,.89,1.75.75,2.59-.21,2.18-2.48,1-8.29-.36-11.03-1.06-2.14-4.1-3.88-3.03-6.52.16-.39,1.35-1.34,1.66-1.34h13.21Z"/>
      <path class="cls-1" d="M96.97,75.74c.31.06,1.16.67,1.37.99,1.62,2.51-.36,9.12-.4,12.09,2.25.16,6.69-.19,7.25-2.94s-.77-7.39-1.67-10.14h11.06c1.08,0,1.74,2.25,1.82,3.11.33,3.63-.9,8.62-1.07,12.44-.18,4.29.12,9.65.67,13.92.37,2.87,1.2,5.66,1.69,8.5h-10.2c-.07,0-1.28-.27-1.41-.31-.99-.36-1.6-1.59-1.71-2.58-.44-4.12.71-8.38,1.07-12.45.15-1.65.19-3.38.22-5.04h-3.11c-.16,0-1.75.44-2.03.54-3.32,1.22-3.2,4.24-3.02,7.3.25,4.28,1.83,8.41,2.8,12.54h-10.2c-.55,0-1.98-.51-2.4-.93-1.38-1.38-.9-5.64-.71-7.54.66-6.91,1.59-12.41,1.07-19.52-.25-3.39-.68-6.9-2.15-9.98h11.06Z"/>
      <path class="cls-1" d="M73.23,88.83c.5-3.28.46-6.93-3.39-7.88-4.22-1.04-6.61,1.87-6.93,5.83s-.32,10.64.01,14.38c.38,4.19,3.4,6.87,7.63,5.49s3.91-6.44,2.24-9.67h9.99c.09,0,1.02.6,1.19.74,2.55,2.26.32,8.81-1.52,11.16-5.49,7.03-20.17,6.92-26.63,1.3-8.18-7.12-7.44-25.33,1.44-31.61,5.79-4.1,16.49-4.51,22.6-.99,2.79,1.61,5.47,5.73,4.54,9-.2.71-1.36,2.24-2.05,2.24h-9.13Z"/>
      <path class="cls-1" d="M225.5,75.96c-.8,3.1,2.46,7.56-.42,10.2-2.66,2.44-5.07-1.8-6.78-3.33-1.85-1.65-4.43-3.13-6.97-2.04s-.85,4.57.87,5.78c3.6,2.52,11.84,3.96,14.49,7.2,3.3,4.04,2.02,11.55-1.09,15.43-3.43,4.28-8.66,5.33-13.94,4.95-4.15-.3-8.12-2.21-12.35-1.71-.03-.88.06-1.77-.03-2.66-.19-1.97-1.21-5-1.22-6.68s1.21-3.49,3.04-3.32c1.55.15,3.82,2.99,5.22,4.03,2.44,1.82,6.53,4.01,9.45,2.22,3.86-2.36.7-5.1-1.86-6.59-5.44-3.17-14.77-5.11-14.92-13.08-.13-7.05,4.92-10.38,11.39-11.24,5.2-.69,9.92,1.76,15.11.83Z"/>
      <path class="cls-1" d="M13.85,75.74c.81.16,1.54,1.11,1.77,1.88.94,3.25-.74,6.63-1.01,9.82-.11,1.23-.34,1.92,1.08,1.5,1.75-.51,5.32-4.94,6.05-6.61,1.22-2.81-3.59-3.52-1.99-6.01.06-.09.93-.57.98-.57h11.49l-11.81,14.37c10.57,1.59,9.09,13.59,12.35,21.02.41.94,1.03,1.66,1.39,2.58-2.66-.31-5.37-.24-8.06-.22-1.38.01-1.68.51-3.18-.23-3.41-1.67-3.47-8.94-4.07-12.24-.45-2.45-1.26-6.5-4.12-7.04-.33,6.64.29,13.45,2.47,19.74H6.98c-.09,0-1.4-.31-1.56-.38-2.36-.98-1.75-5.81-1.56-7.88.81-8.52,2.04-15.68.58-24.4-.31-1.83-.93-3.55-1.44-5.32h10.85Z"/>
      <path class="cls-1" d="M28.56,50.85c.17.84.1,1.55-.21,2.15-.01,1.19.28,7.75,1.07,8.27.55.36,2.53.04,3.17-.29,1.39-.72,2.17-3,4.16-2.74,3.06.41.23,5.65.63,7.63-.94-.09-1.95-.38-2.89-.44-3.54-.22-7.77.41-11.18.01-.52-.06-.97-.2-1.27-.66-1.07-1.66.4-8.52.52-10.82.21-3.83-.08-8.25-1.18-11.91-2.11,5.75-4.58,11.5-6.18,17.43-.53,1.95-1.18,3.92-1.02,5.96-2.94-.41-5.76,1.35-7.04-2.09-1.16-3.12-1.49-7.35-2.56-10.74-.89-2.83-2.38-7.04-3.61-9.7-.28-.59-.55-1.01-.96-1.51h7.41c.17,0,.79.99.9,1.24,1.43,3.19,1.84,8.46,3.39,11.41.64,1.22,1.22.56,1.94-.21,1.42-1.54,2.78-6.36,1.5-8.15-.72-1-3.58-1.62-3.02-3.44.25-.8.98-1.01,1.73-1.08,5.74-.52,12.33.53,18.27.23,1.7-.08,3.68-.25,5.25-.87-.34,1.63,1.39,6.48-1.4,6.41-1.41-.03-1.54-1.94-3.11-2.45-.61-.2-3.46-.59-3.78-.12s-.47,5.47-.52,6.45Z"/>
      <path class="cls-1" d="M185.45,29.18c-1.7-.36-1.47-3.96-1.39-5.25.43-7.17,1.99-13.15.15-20.54-.2-.79-.51-1.56-.8-2.31,4.4.13,8.32-.91,12.71.06,8.85,1.95,15.05,13.58,11.1,21.9-1.92,4.05-5.86,7.38-10.59,6.77-2.67-.34-2.44-2.57-2.92-4.7,3.39,1.06,4.75-1.88,5.3-4.68.83-4.22.61-8.78-1.78-12.47-.99-1.53-2.66-3.25-4.6-3.24.17,2.33-.35,4.65-.44,6.96-.16,4.17.21,9.35.94,13.46.24,1.36.59,2.72,1.01,4.04h-8.7Z"/>
      <path class="cls-1" d="M60.99,1.29c-.35,2.42,1.8,5.49-.21,7.57s-4.23-1.89-5.61-2.93c-.96-.73-2.46-1.55-3.68-1.37-2.84.43-2.17,3.31-.36,4.55,2.57,1.76,8.67,2.98,10.62,5.05,3.64,3.86,1.1,11.67-3.27,14.12-5.5,3.09-11.3.1-17.03.04-.05-.81.08-1.67,0-2.46-.18-1.8-1.75-5.54.23-6.64s3.79,1.78,5.28,2.84c2.09,1.49,5.94,3.39,7.8.57,1.22-1.84-1.72-3.64-3.14-4.37-4.02-2.06-10.51-3.84-10.41-9.58.09-4.85,3.48-7.15,7.91-7.98,4.13-.78,7.71,1.04,11.86.58Z"/>
      <path class="cls-1" d="M34.15,75.74h11.28c.24,0,1.21.93,1.37,1.21,1.22,2.2-.2,8.82-.4,11.56-.49,6.58-.11,14.24,1.18,20.7.27,1.34.89,2.84,1.1,4.06.04.23-.15.44-.24.44h-10.31c-.09,0-1.4-.31-1.56-.38-2.29-.94-1.74-5.67-1.56-7.67.78-8.61,2.06-15.79.58-24.61-.31-1.83-.93-3.55-1.44-5.32Z"/>
      <path class="cls-1" d="M121.23,65.44c-.08-.02-.76-.73-.84-.88-1.02-1.82.38-7.24.52-9.53.27-4.42.1-9.42-1.29-13.62,1.03-.04,2.08.06,3.11,0,2.25-.13,4.11-.5,6.42-.19,9.76,1.34,15.75,14.34,8.73,21.97-1.52,1.65-3.79,3.01-6.13,2.9-2.82-.14-3.09-1.56-3.32-4.09,3.4.84,4.43-2.8,4.72-5.48.49-4.46-.61-10.74-5.58-12.12-.67,7.01-.71,14.18,1.07,21.03h-7.41Z"/>
      <path class="cls-1" d="M126.07.86c-2.32,6.75-5.14,13.36-7.14,20.22-.75,2.58-1.7,5.45-1.55,8.1-1.69-.26-5.43.49-6.75-.33-1.87-1.17-2.56-7.5-3.12-9.75-1.26-5.07-3.32-11.06-5.38-15.87-.32-.75-.72-1.47-1.18-2.15h8.48c.16,0,.95,1.01,1.07,1.29,1.75,3.94,2.3,9.49,4.02,13.58.75,1.35,1.61.43,2.32-.38,1.65-1.87,3.26-7.44,1.6-9.54-.88-1.11-4.87-2.44-3.12-4.58.1-.12.92-.58.98-.58h9.77Z"/>
      <path class="cls-1" d="M228.08.22c-.51,2.05,1.69,7.23-1.62,7.31-1.81.04-1.89-2.49-3.95-2.92-.62-.13-3.97-.25-4.21.11l-.74,8.28c-.11,3.86.02,7.73,1.09,11.46,1.27.05,2.38.16,3.56-.37,1.98-.9,2.51-3.68,5.32-3.24,3.19.49.07,6.76.55,8.79-.12.13-2.85-.41-3.32-.44-4.22-.25-8.99.41-13.12.02-2.75-.26-2.01-4.57-1.81-6.55.22-2.14.74-4.28.85-6.44.27-4.98-.04-10.37-1.5-15.12,6.29-.19,12.73.57,18.9-.86Z"/>
      <path class="cls-1" d="M39.52.22c-.51,2.05,1.69,7.23-1.62,7.31-1.81.04-1.89-2.49-3.95-2.92-.62-.13-3.97-.25-4.21.11l-.74,8.28c-.11,3.86.02,7.73,1.09,11.46,1.27.05,2.38.16,3.56-.37,1.98-.9,2.51-3.68,5.32-3.24,3.19.49.07,6.76.55,8.79-.12.13-2.85-.41-3.32-.44-4.22-.25-8.99.41-13.12.02-2.75-.26-2.01-4.57-1.81-6.55.22-2.14.74-4.28.85-6.44.27-4.98-.04-10.37-1.5-15.12,6.29-.19,12.73.57,18.9-.86Z"/>
      <path class="cls-1" d="M76.89,41.62c-.05,1.66,1.87,6.79-1.19,6.88-2.11.06-3.57-4.53-7.06-4.08-2.11.27-1.65,2.71-.33,3.73,2.49,1.9,8.24,2.5,9.91,5.33,2.11,3.57.09,9.25-3.47,11.21-4.85,2.67-9.4.03-14.4.1.36-1.88-1.42-5.77-.52-7.28,1.47-2.45,4.19,1.27,5.69,2.22s3.5,1.96,5.21.95c4.52-2.66-4.89-5.75-6.5-6.74-1.44-.89-3.75-2.79-4.05-4.54-1.12-6.57,4.85-8.88,10.36-8.42,2.05.17,4.14,1.01,6.34.64Z"/>
      <path class="cls-1" d="M227.01,41.62c-.05,1.66,1.87,6.79-1.19,6.88-2.11.06-3.57-4.53-7.06-4.08-2.11.27-1.65,2.71-.33,3.73,2.49,1.9,8.24,2.5,9.91,5.33,2.11,3.57.09,9.25-3.47,11.21-4.85,2.67-9.4.03-14.4.1.36-1.88-1.42-5.77-.52-7.28,1.47-2.45,4.19,1.27,5.69,2.22s3.5,1.96,5.21.95c4.52-2.66-4.89-5.75-6.5-6.74-1.44-.89-3.75-2.79-4.05-4.54-1.12-6.57,4.85-8.88,10.36-8.42,2.05.17,4.14,1.01,6.34.64Z"/>
      <path class="cls-1" d="M73.34,29.18c-2.6-.55-.93-7.72-.78-9.57.27-3.26.67-6.8.45-10.05-.05-.77-.6-4.85-1.06-5.16-.38-.25-2.04-.12-2.55.04-1.39.43-1.77,2.38-2.84,2.74-4.34,1.48-2.2-5.03-2.56-7.18,1.53.65,3.38.96,5.05,1.07,4.13.27,9.82.23,13.97.01,1.91-.1,4.01-.35,5.79-1.09l.32,5.45c-.28,1.3-.6,1.91-2.03,1.87-1.69-.05-1.82-1.44-2.89-2.28-1.15-.9-2.27-.78-3.66-.75-.21,8.23-1.62,17.32,2.36,24.89h-9.56Z"/>
      <path class="cls-1" d="M20.19.22v4.61c0,.07.21.3.21.61-.02,1.78-1.78,2.73-3.22,1.54-.63-.52-.74-1.28-1.29-1.71-.17-.13-1.5-.76-1.6-.76h-3.97c-.44,8.22-1.4,16.99,2.15,24.67H3.11c-.13,0-.84-.57-.97-.75-1.29-1.79.3-8.92.44-11.37.15-2.57.14-6.03,0-8.6S1.97,3.42,1.07,1.08c6.37-.18,12.87.54,19.11-.86Z"/>
      <path class="cls-1" d="M162.18,25.29c1.44.02,2.85.25,4.2-.36,1.86-.84,2.4-4.14,4.81-3.37,1.06.34,1.12,1.2,1.06,2.15-.13,2.01-.9,4.23-.64,6.33-1.79-.43-3.64-.75-5.48-.86-3.18-.18-7.57.45-10.51-.01-3.48-.55-1.53-7.6-1.4-9.96.33-6.04-.03-12.45-2.16-18.14,1.82-.03,3.66.03,5.49,0,.79-.01,1.43-.29,2.35-.22,3.42.26,2.02,2.84,1.83,5.04-.55,6.42-.86,13.06.46,19.39Z"/>
      <path class="cls-1" d="M86.76,50.85c.17.84.1,1.55-.21,2.15-.01,1.19.28,7.75,1.07,8.27.52.34,2.4.06,3.02-.22,1.44-.65,2.14-2.8,4.01-2.83,3.5-.06.53,5.78.93,7.66-.94-.09-1.95-.38-2.89-.44-3.55-.22-7.76.41-11.18.01-2.07-.24-1.7-3.01-1.61-4.63.32-5.85,1.44-10.08.38-16.23-.19-1.1-.48-2.18-1.01-3.17,5.39-.24,11.11.64,16.32-.86-.34,1.63,1.39,6.48-1.4,6.41-1.41-.03-1.54-1.94-3.11-2.45-.61-.2-3.46-.59-3.78-.12s-.47,5.47-.52,6.45Z"/>
      <path class="cls-1" d="M101.37,29.18h-8.91c-.13,0-.84-.57-.97-.75-1.29-1.79.3-8.92.44-11.37.15-2.57.14-6.03,0-8.6s-.62-5.05-1.51-7.39h8.48c.85,0,1.34,1.78,1.39,2.47.21,2.61-.73,6.27-.85,9.01-.16,3.58.13,8.19.7,11.74.26,1.63.67,3.34,1.23,4.89Z"/>
      <path class="cls-1" d="M15.84,10.14c.66.62.78,4.41.7,5.41s-.33,2.94-1.58,2.9c-.39-.01-4.61-2.34-4.75-2.57s-.19-2.75-.11-3.07c.07-.24,3.73-2.64,4.14-2.78.49-.17,1.17-.3,1.61.11Z"/>
      <path class="cls-1" d="M222.44,9.91c1.56-.23,1.68,1.18,1.78,2.42.1,1.35.44,6.01-1.42,6.12-.4.02-4.13-2.04-4.47-2.38-.51-.51-.52-3.02-.15-3.53.24-.33,3.8-2.56,4.26-2.63Z"/>
      <path class="cls-1" d="M33.88,9.91c1.56-.23,1.68,1.18,1.78,2.42.1,1.35.44,6.01-1.42,6.12-.4.02-4.13-2.04-4.47-2.38-.51-.51-.52-3.02-.15-3.53.24-.33,3.8-2.56,4.26-2.63Z"/>
      <path class="cls-1" d="M28.78,51.5c.65-.75,4.17-3.5,4.96-2.22.57.92.71,6.38-.28,6.8-.43.18-.8.19-1.25.05-.49-.15-3.09-1.84-3.43-2.27-.23-.75-.33-1.68,0-2.36Z"/>
      <path class="cls-1" d="M86.98,51.5c.65-.75,4.17-3.5,4.96-2.22.57.92.71,6.38-.28,6.8-.43.18-.8.19-1.25.05-.49-.15-3.09-1.84-3.43-2.27-.23-.75-.33-1.68,0-2.36Z"/>
      <path class="cls-1" d="M28.78,51.5c.1.72-.07,1.61,0,2.36-.21-.27-.2-.62-.43-.86,0-.81.18-1.54.21-2.15-.11.26.2.55.21.64Z"/>
      <path class="cls-1" d="M86.98,51.5c.1.72-.07,1.61,0,2.36-.21-.27-.2-.62-.43-.86,0-.81.18-1.54.21-2.15-.11.26.2.55.21.64Z"/>
      <path class="cls-1" d="M185.66,77.03c-.11-.6-1.45-1.5-1.93-1.5h-11.06c.18.86.66,1.52.91,2.41.85,2.93.12,4.65-.64,7.41-1.65,6-4.01,12.52-6.4,18.28-1.4,3.37-2.79,7.16-5.25,9.88h9.34c.58,0,1.13-1.28,1.19-1.82.19-1.74-.7-2.44-.86-3.87-.33-2.98,1.03-6.41,2.18-9.08h7.23c1.73,3.78,2.59,8.53,4.43,12.2.45.89,1.7,2.78,2.8,2.78h11.7c-5.29-11.93-10.47-23.97-13.64-36.69ZM174.5,94.19c-.1,0-.37.56-.32-.11l2.26-7.4,2.68,7.51h-4.62Z"/>
      <path class="cls-1" d="M201.52,41.9c-.04-.25-1.14-.7-1.25-.7h-6.98c.39.92.78,1.4.87,2.46.27,3.29-3.59,13.02-5.06,16.42-.56,1.29-1.25,3.08-1.99,4.23-.17.26-.19.49-.58.5-.34,0-.69-5.7-.78-6.3-.55-3.85-1.44-6.54-5.77-7.22l1.79-.89c2.05-1.48,2.47-3.87,1.8-6.23-1.36-4.82-8.43-2.85-12.06-2.74-1.77.06-3.51-.08-5.27-.22,2,4.52,1.88,9.62,1.73,14.49-.08,2.58-.66,5.64-.62,8.15,0,.46.52,1.49.93,1.6h8.05c-.24-1.26-.64-2.51-.83-3.78-.2-1.36-.39-3.12-.46-4.48-.05-1.07-.15-3.09,0-4.08.12-.77,1.25-.13,1.61.11,2.02,1.39,1.42,5.75,1.41,8.05,0,1.19-.57,1.82.32,3.09,1.42,2.04,7.01,1.17,9.22,1.07,1.06-.04,4.24.23,4.91-.19.92-.58.01-2.3-.06-2.93-.19-1.58.27-4.9,1.25-6.18.16-.21,4.2-.23,4.54-.03,1.12,1.63,2.52,9.55,4.83,9.55h7.41c-3.56-7.69-6.67-15.58-8.95-23.76ZM175.89,49.03c-.2-.1-.64-.92-.64-1.08,0-.83-.17-3.05,0-3.65.2-.71,1.7.2,2.04.54,1.45,1.42.94,5.37-1.4,4.19ZM194.36,53.21l1.29-4.72.8,1.66.91,2.84-3.01.21Z"/>
      <path class="cls-1" d="M164.93,48.4c-1.61-5.32-6.72-7.77-12.06-7.35-8.5.66-11.34,7.32-10.69,15.06.67,8.03,8.19,11.18,15.41,9.4,7.52-1.86,9.33-10.49,7.34-17.1ZM157.06,58.96c-1.11,3.29-5.54,3.14-6.58-.21-.51-1.64-.37-7.49-.32-9.51.05-1.84.59-4.13,2.69-4.56,2.72-.56,4.32,1.43,4.57,3.92.2,2.04.23,8.6-.36,10.36Z"/>
      <path class="cls-1" d="M148.95,20.16c-.92-2.24-1.82-4.52-2.64-6.81-1.42-3.95-2.49-8.05-3.92-11.96-.11-.09-1.11-.54-1.18-.54h-8.27c.44.86.93,1.72,1.05,2.71.39,3.2-3.03,12.01-4.33,15.37-1.34,3.49-2.75,7.19-4.89,10.24h6.77c.42,0,.89-.77.95-1.19.22-1.36-.47-1.62-.62-2.57-.23-1.42.15-3.39.57-4.77.2-.64.82-2.5,1.46-2.62.49-.09,4.63-.04,4.84.1,1.41,2.77,1.97,6.58,3.39,9.27.31.59,1.42,2,2.08,2h8.7c-1.12-3.11-2.7-6.14-3.97-9.23ZM134.23,14.81l1.51-5.36c.31.02.34.32.44.53.67,1.45,1.19,3.3,1.71,4.84h-3.65Z"/>
      <path class="cls-1" d="M52.62,51.28l2.04-1.07c1.9-1.53,2.25-4.17,1.46-6.4-1.54-4.36-8.5-2.5-11.98-2.39-1.77.06-3.51-.08-5.27-.22,2,4.52,1.88,9.62,1.73,14.49-.08,2.58-.66,5.64-.62,8.15,0,.46.52,1.49.93,1.6h8.05c-1.1-4.12-1.37-8.4-1.29-12.66,3.98.05,3.04,5.66,3.02,8.48-.01,1.44-.65,2.8,1.13,3.79.37.2,1.63.6,1.98.6h5.69c-1.95-5.04.59-13.39-6.87-14.38ZM48.53,49.03c-.2-.1-.64-.92-.64-1.08,0-.83-.17-3.05,0-3.65.2-.71,1.7.2,2.04.54,1.45,1.42.94,5.37-1.4,4.19Z"/>
      <path class="cls-1" d="M111.1,41.9c-.11-.27-1-.66-1.25-.7-2.07-.31-4.83.23-6.98,0,.39.92.78,1.4.87,2.46.23,2.71-2.19,9.03-3.23,11.81-1.25,3.36-2.64,7.09-4.73,9.97h5.91c1.42,0,.39-2.61.33-3.12-.27-2.25.33-4.29,1.31-6.28l4.48.07c1.12,1.63,2.52,9.55,4.83,9.55h7.41c-3.56-7.69-6.67-15.58-8.95-23.76ZM103.95,53.21l1.29-4.72.8,1.66.91,2.84-3.01.21Z"/>
    </g>
  </g>
</svg>